<?xml version="1.0" encoding="utf-8"?>
<svg focusable="false" height="40" shape-rendering="geometricPrecision" version="1.1" viewBox="0 0 40 40" width="40" xmlns="http://www.w3.org/2000/svg">
	<title>Elementary CSS</title>
	<path
		fill="#1a1a1a"
		d="m 21.53177,38.896983 c 6.04667,-0.691047 8.24938,-2.76419 8.24938,-7.299189 v -6.089856 c 0,-3.109714 1.29572,-4.362237 4.66457,-4.362237 v -1.814 c -3.36885,0 -4.66457,-1.295714 -4.66457,-4.362237 V 8.9227985 c 0,-4.5349991 -2.20271,-6.6081416 -8.24938,-7.2991891 l -0.21595,1.7708092 c 4.92371,0.6046665 6.52176,2.0731425 6.52176,5.7011417 l -0.0432,6.2194277 c 0,2.850571 0.95019,4.275856 3.06652,4.923713 -2.15952,0.691048 -3.06652,2.116333 -3.06652,4.966904 l 0.0432,6.176237 c 0,3.67119 -1.64124,5.139665 -6.52176,5.744332 z m -2.46763,0 0.21595,-1.770809 c -4.88052,-0.604667 -6.52176,-2.073142 -6.52176,-5.744332 l 0.0432,-6.176237 c 0,-2.850571 -0.95019,-4.275856 -3.10971,-4.966904 2.15952,-0.647857 3.10971,-2.073142 3.10971,-4.923713 l -0.0432,-6.2194277 c 0,-3.6279992 1.59805,-5.0964752 6.52176,-5.7011417 L 19.06414,1.6236094 c -6.04666,0.6910475 -8.24938,2.76419 -8.24938,7.2991891 v 6.0466655 c 0,3.066523 -1.29571,4.362237 -4.66457,4.362237 v 1.814 c 3.36886,0 4.66457,1.252523 4.66457,4.362237 v 6.089856 c 0,4.534999 2.20272,6.608142 8.24938,7.299189 z" />
</svg>
