<?xml version="1.0" encoding="utf-8"?>
<svg focusable="false" height="120" version="1.1" viewBox="0 0 120 120" width="120" xmlns="http://www.w3.org/2000/svg">
	<path fill="#CCCCCC" d="M71.228,67.51L59.982,78.756l-7.497,7.499V97.5l-11.247,18.744l7.498,3.749l26.24-26.242L71.228,67.51z M52.485,48.765l-26.242-3.749L0.001,71.258l3.749,7.498L22.494,67.51h11.247l7.497-7.499L52.485,48.765z"/>
	<path fill="#FFCC66" d="M18.745,82.506c-7.384,10.771-18.696,24.058-18.744,29.988c-0.041,4.504,2.954,7.537,7.498,7.498 c6.03-0.052,18.765-11.306,29.991-18.743L18.745,82.506z"/>
	<path fill="#ED7161" d="M29.991,78.756C22.607,89.53,7.498,102.813,7.498,108.745c0,3.92,0.377,3.749,3.749,3.749 c6.029,0,18.764-15.054,29.99-22.493L29.991,78.756z"/>
	<path fill="#387AA7" d="M112.464,0.031c-11.783,0.728-32.124,2.13-56.232,26.242C38.5,44.006,22.94,69.793,15.648,86.903 l17.558,17.559c17.017-7.223,42.631-22.817,60.514-40.699c23.953-23.956,25.317-44.367,26.242-56.234 C120.373,2.231,117.362-0.273,112.464,0.031z"/>
	<path fill="#48A0DC" d="M112.464,0.031c-11.783,0.728-32.124,2.13-56.232,26.242c-14.478,14.475-27.485,34.315-35.759,50.43 l22.934,22.935C59.425,91.386,79.14,78.339,93.72,63.763c23.953-23.956,25.317-44.367,26.242-56.234 C120.373,2.231,117.362-0.273,112.464,0.031z"/>
	<circle fill="#4D4D4D" cx="89.972" cy="30.021" r="14.995"/>
	<circle fill="#FFFFFF" cx="89.972" cy="30.021" r="7.498"/>
</svg>
