<?xml version="1.0" encoding="utf-8"?>
<svg focusable="false" height="40" shape-rendering="geometricPrecision" version="1.1" viewBox="0 0 255 40" width="255" xmlns="http://www.w3.org/2000/svg">
	<title>Elementary CSS</title>
	<path
		fill="#1a1a1a"
		d="m 196.63617,39.50165 c 3.10972,-0.04319 5.22605,-1.511667 6.56496,-4.750952 l 10.4089,-25.3528044 h -2.2891 L 203.02836,29.740604 194.39027,9.3978936 h -2.33228 l 9.84742,22.9773294 -1.29571,3.023332 c -0.82062,1.382095 -2.24591,2.073143 -4.01672,2.073143 -0.99338,0 -2.02995,-0.259143 -2.98014,-0.691048 l -0.51828,1.986762 c 0.99338,0.475095 2.28909,0.734238 3.54161,0.734238 z M 182.86142,14.278416 V 9.3978936 h -2.11633 V 31.727365 h 2.11633 V 19.24532 c 0,-4.880523 3.58481,-8.37895 8.6381,-8.37895 V 8.879608 c -4.1031,0 -7.51514,2.245904 -8.6381,5.398808 z M 167.00609,8.879608 c -2.28909,0 -5.09647,0.6910475 -7.81747,2.159523 l 0.86381,1.77081 c 2.07314,-1.166143 4.49181,-1.986762 6.73771,-1.986762 5.13967,0 6.82409,3.800761 6.82409,7.299189 v 1.036571 c -2.46185,-0.863809 -5.22604,-1.468476 -7.6879,-1.468476 -5.18286,0 -8.89724,3.023333 -8.89724,7.38557 0,4.319047 3.41205,7.169618 8.07662,7.169618 3.15291,0 6.8241,-1.425285 8.50852,-4.103094 v 3.584808 h 2.11634 V 18.122368 c 0,-5.398808 -3.15291,-9.24276 -8.72448,-9.24276 z m -1.59804,21.379282 c -3.54162,0 -6.30581,-2.116333 -6.30581,-5.226047 0,-3.152904 2.98014,-5.398808 7.12642,-5.398808 2.54824,0 5.18286,0.604666 7.38557,1.338904 v 3.757571 c -0.86381,3.71438 -4.9669,5.52838 -8.20618,5.52838 z m -11.00652,-1.079762 c -0.77743,0.647857 -1.85719,1.079762 -2.93695,1.079762 -1.64124,0 -2.85057,-1.554857 -2.85057,-3.714381 V 11.384655 h 5.74433 V 9.3978936 h -5.74433 V 3.2648472 h -2.11634 v 6.1330464 h -3.80076 v 1.9867614 h 3.80076 v 15.159854 c 0,3.325666 1.98676,5.701142 4.83734,5.701142 1.51166,0 2.98014,-0.518286 4.14628,-1.425285 z M 131.42382,8.879608 c -3.36885,0 -6.17623,1.727619 -7.34238,4.362237 V 9.3978936 h -2.11633 V 31.727365 h 2.11633 V 17.474511 c 0,-3.757571 3.02334,-6.608141 7.04005,-6.608141 3.84395,0 6.52176,2.764189 6.52176,6.651332 v 14.209663 h 2.11633 V 17.215368 c 0,-4.880523 -3.45523,-8.33576 -8.33576,-8.33576 z M 107.96023,30.25889 c -4.70776,0 -8.465334,-3.887143 -8.897239,-8.810856 H 118.4987 c 0,-7.558332 -4.10309,-12.568426 -10.62485,-12.568426 -6.08986,0 -10.970382,5.053285 -10.970382,11.618236 0,6.564951 5.139662,11.747807 11.099952,11.747807 3.41205,0 7.29919,-1.382095 9.19957,-3.455237 l -1.3821,-1.468476 c -1.68443,1.85719 -4.83733,2.936952 -7.86066,2.936952 z m -0.0432,-19.39252 c 5.01009,0 8.163,3.541618 8.46533,8.594903 H 99.062991 c 0.475095,-4.966904 4.189479,-8.594903 8.854049,-8.594903 z M 85.816643,8.879608 c -3.541619,0 -6.478571,1.900381 -7.38557,4.794142 -1.122953,-2.936952 -3.757571,-4.794142 -7.040047,-4.794142 -3.239285,0 -5.787522,1.511666 -6.780903,3.843952 V 9.3978936 H 62.49379 V 31.727365 h 2.116333 V 17.215368 c 0,-3.71438 2.677809,-6.348998 6.47857,-6.348998 3.412047,0 5.873904,2.764189 5.873904,6.651332 V 31.727365 H 79.07893 V 17.215368 c 0,-3.71438 2.677809,-6.348998 6.47857,-6.348998 3.412047,0 5.830713,2.764189 5.830713,6.651332 v 14.209663 h 2.116333 V 17.215368 c 0,-4.880523 -3.152904,-8.33576 -7.687903,-8.33576 z M 48.532096,30.25889 c -4.707761,0 -8.465331,-3.887143 -8.897236,-8.810856 h 19.435711 c 0,-7.558332 -4.103095,-12.568426 -10.624855,-12.568426 -6.089856,0 -10.970379,5.053285 -10.970379,11.618236 0,6.564951 5.139665,11.747807 11.09995,11.747807 3.412047,0 7.299189,-1.382095 9.19957,-3.455237 l -1.382095,-1.468476 c -1.684429,1.85719 -4.837333,2.936952 -7.860666,2.936952 z m -0.04319,-19.39252 c 5.010094,0 8.162998,3.541618 8.465332,8.594903 H 39.63486 c 0.475095,-4.966904 4.189475,-8.594903 8.854046,-8.594903 z M 31.915537,31.727365 H 34.03187 V 1.5372285 H 31.915537 Z M 17.953843,30.25889 c -4.707761,0 -8.4653315,-3.887143 -8.8972362,-8.810856 H 28.492317 c 0,-7.558332 -4.103094,-12.568426 -10.624855,-12.568426 -6.089856,0 -10.9703786,5.053285 -10.9703786,11.618236 0,6.564951 5.1396656,11.747807 11.0999506,11.747807 3.412047,0 7.299189,-1.382095 9.199569,-3.455237 l -1.382095,-1.468476 c -1.684428,1.85719 -4.837332,2.936952 -7.860665,2.936952 z m -0.04319,-19.39252 c 5.010094,0 8.162998,3.541618 8.465331,8.594903 H 9.0566068 C 9.531702,14.494369 13.246082,10.86637 17.910653,10.86637 Z M 2.0485782,32.245651 c 0.8638093,0 1.5980473,-0.777428 1.5980473,-1.684428 0,-0.820619 -0.734238,-1.598047 -1.5980473,-1.598047 -0.9501903,0 -1.68442827,0.777428 -1.68442827,1.598047 0,0.907 0.73423797,1.684428 1.68442827,1.684428 z" />
	<path
		fill="#1a1a1a"
		d="m 241.53177,38.896983 c 6.04667,-0.691047 8.24938,-2.76419 8.24938,-7.299189 v -6.089856 c 0,-3.109714 1.29572,-4.362237 4.66457,-4.362237 v -1.814 c -3.36885,0 -4.66457,-1.295714 -4.66457,-4.362237 V 8.9227985 c 0,-4.5349991 -2.20271,-6.6081416 -8.24938,-7.2991891 l -0.21595,1.7708092 c 4.92371,0.6046665 6.52176,2.0731425 6.52176,5.7011417 l -0.0432,6.2194277 c 0,2.850571 0.95019,4.275856 3.06652,4.923713 -2.15952,0.691048 -3.06652,2.116333 -3.06652,4.966904 l 0.0432,6.176237 c 0,3.67119 -1.64124,5.139665 -6.52176,5.744332 z m -2.46763,0 0.21595,-1.770809 c -4.88052,-0.604667 -6.52176,-2.073142 -6.52176,-5.744332 l 0.0432,-6.176237 c 0,-2.850571 -0.95019,-4.275856 -3.10971,-4.966904 2.15952,-0.647857 3.10971,-2.073142 3.10971,-4.923713 l -0.0432,-6.2194277 c 0,-3.6279992 1.59805,-5.0964752 6.52176,-5.7011417 l -0.21595,-1.7708092 c -6.04666,0.6910475 -8.24938,2.76419 -8.24938,7.2991891 v 6.0466655 c 0,3.066523 -1.29571,4.362237 -4.66457,4.362237 v 1.814 c 3.36886,0 4.66457,1.252523 4.66457,4.362237 v 6.089856 c 0,4.534999 2.20272,6.608142 8.24938,7.299189 z" />
</svg>
