<?xml version="1.0" encoding="utf-8"?>
<svg focusable="false" height="22" shape-rendering="geometricPrecision" version="1.1" viewBox="0 0 140 22" width="140" xmlns="http://www.w3.org/2000/svg">
	<title>Elementary CSS</title>
	<path
		fill="#1a1a1a"
		d="m 1.2863022,17.529303 c 0.4728985,0 0.8748623,-0.425609 0.8748623,-0.922153 0,-0.449253 -0.4019638,-0.874862 -0.8748623,-0.874862 -0.52018846,0 -0.92215223,0.425609 -0.92215223,0.874862 0,0.496544 0.40196377,0.922153 0.92215223,0.922153 z" />
	<path
		fill="#1a1a1a"
		d="m 107.81466,21.501651 c 1.70244,-0.02364 2.86104,-0.827573 3.59403,-2.600943 l 5.69843,-13.8795723 -1.25318,0 -4.53983,11.1367613 -4.72898,-11.1367613 -1.27683,0 5.39105,12.5791013 -0.70935,1.655145 c -0.44926,0.756638 -1.22954,1.134957 -2.19898,1.134957 -0.54383,0 -1.11131,-0.14187 -1.6315,-0.378319 l -0.28374,1.087667 c 0.54383,0.260094 1.25318,0.401964 1.93888,0.401964 z m -7.54109,-13.8086384 0,-2.6718769 -1.158597,0 0,12.2244283 1.158597,0 0,-6.833385 c 0,-2.6718765 1.96253,-4.5871157 4.72899,-4.5871157 l 0,-1.0876667 c -2.24627,0 -4.11422,1.2295363 -4.72899,2.955616 z m -8.680103,-2.955616 c -1.253181,0 -2.790101,0.3783189 -4.279731,1.1822464 l 0.472898,0.9694421 c 1.134957,-0.6384131 2.459073,-1.0876667 3.688609,-1.0876667 2.813746,0 3.735898,2.0807536 3.735898,3.9959928 l 0,0.5674778 c -1.34776,-0.4728981 -2.861036,-0.8039271 -4.208797,-0.8039271 -2.837391,0 -4.870855,1.6551451 -4.870855,4.0432831 0,2.364492 1.867949,3.925058 4.421602,3.925058 1.726079,0 3.735898,-0.780283 4.65805,-2.246269 l 0,1.96253 1.158602,0 0,-7.4481528 c 0,-2.955616 -1.72608,-5.0600146 -4.776276,-5.0600146 z M 90.718605,16.441636 c -1.938884,0 -3.452159,-1.158602 -3.452159,-2.861036 0,-1.72608 1.6315,-2.955616 3.901413,-2.955616 1.395051,0 2.837391,0.331029 4.043282,0.732992 l 0,2.057109 c -0.472898,2.033464 -2.719166,3.026551 -4.492536,3.026551 z m -6.025596,-0.591123 c -0.425609,0.354674 -1.016732,0.591123 -1.607855,0.591123 -0.898508,0 -1.560566,-0.851217 -1.560566,-2.033464 l 0,-8.2993696 3.144776,0 0,-1.0876667 -3.144776,0 0,-3.3575797 -1.158601,0 0,3.3575797 -2.080754,0 0,1.0876667 2.080754,0 0,8.2993696 c 0,1.82066 1.087667,3.121131 2.648232,3.121131 0.827572,0 1.6315,-0.283739 2.269913,-0.780283 L 84.693009,15.850513 Z M 72.113699,4.7373966 c -1.844304,0 -3.381224,0.9457971 -4.019638,2.3881377 l 0,-2.1043986 -1.158601,0 0,12.2244283 1.158601,0 0,-7.8028267 c 0,-2.0571088 1.655145,-3.617674 3.854124,-3.617674 2.104398,0 3.570384,1.5132754 3.570384,3.6413189 l 0,7.7791818 1.158601,0 0,-7.9446963 c 0,-2.6718769 -1.891594,-4.5634711 -4.563471,-4.5634711 z M 59.268389,16.441636 c -2.577297,0 -4.634406,-2.128044 -4.870855,-4.823565 l 10.640218,0 c 0,-4.1378627 -2.246269,-6.8806744 -5.816653,-6.8806744 -3.333935,0 -6.005811,2.7664566 -6.005811,6.3604854 0,3.594029 2.813746,6.431421 6.076746,6.431421 1.867949,0 3.995993,-0.756638 5.03637,-1.891595 l -0.756638,-0.803927 c -0.922152,1.016732 -2.648232,1.607855 -4.303377,1.607855 z M 59.244744,5.8250633 c 2.742812,0 4.468892,1.9388841 4.634406,4.7053407 l -9.481616,0 c 0.260094,-2.7191668 2.293558,-4.7053407 4.84721,-4.7053407 z M 47.145721,4.7373966 c -1.938884,0 -3.546739,1.0403768 -4.043283,2.624587 -0.614768,-1.6078551 -2.057108,-2.624587 -3.854123,-2.624587 -1.773369,0 -3.16842,0.8275725 -3.712254,2.1043986 l 0,-1.8206595 -1.158601,0 0,12.2244283 1.158601,0 0,-7.9446963 c 0,-2.0334638 1.465986,-3.4758044 3.54674,-3.4758044 1.867949,0 3.21571,1.5132754 3.21571,3.6413189 l 0,7.7791818 1.158601,0 0,-7.9446963 c 0,-2.0334638 1.465986,-3.4758044 3.546739,-3.4758044 1.86795,0 3.192066,1.5132754 3.192066,3.6413189 l 0,7.7791818 1.158601,0 0,-7.9446963 c 0,-2.6718769 -1.72608,-4.5634711 -4.208797,-4.5634711 z M 26.734034,16.441636 c -2.577297,0 -4.634406,-2.128044 -4.870855,-4.823565 l 10.640217,0 c 0,-4.1378627 -2.246268,-6.8806744 -5.816652,-6.8806744 -3.333935,0 -6.005812,2.7664566 -6.005812,6.3604854 0,3.594029 2.813747,6.431421 6.076747,6.431421 1.867949,0 3.995993,-0.756638 5.036369,-1.891595 l -0.756637,-0.803927 c -0.922152,1.016732 -2.648232,1.607855 -4.303377,1.607855 z M 26.710389,5.8250633 c 2.742812,0 4.468891,1.9388841 4.634406,4.7053407 l -9.481616,0 c 0.260094,-2.7191668 2.293558,-4.7053407 4.84721,-4.7053407 z m -9.073209,11.4205007 1.158601,0 0,-16.52780515 -1.158601,0 0,16.52780515 z M 9.9937523,16.441636 c -2.5772971,0 -4.6344059,-2.128044 -4.8708551,-4.823565 l 10.6402178,0 c 0,-4.1378627 -2.246268,-6.8806744 -5.8166525,-6.8806744 -3.3339349,0 -6.0058117,2.7664566 -6.0058117,6.3604854 0,3.594029 2.8137464,6.431421 6.0767462,6.431421 1.86795,0 3.995993,-0.756638 5.03637,-1.891595 l -0.756638,-0.803927 c -0.922152,1.016732 -2.648232,1.607855 -4.3033767,1.607855 z M 9.9701074,5.8250633 c 2.7428116,0 4.4688916,1.9388841 4.6344056,4.7053407 l -9.4816158,0 C 5.3829914,7.8112372 7.4164552,5.8250633 9.9701074,5.8250633 Z" />
	<path
		fill="#1a1a1a"
		d="m 132.39308,21.170622 c 3.31029,-0.378319 4.51618,-1.513276 4.51618,-3.995993 l 0,-3.333935 c 0,-1.702435 0.70935,-2.388138 2.55365,-2.388138 l 0,-0.993087 c -1.8443,0 -2.55365,-0.7093477 -2.55365,-2.3881375 l 0,-3.31029 c 0,-2.4827174 -1.20589,-3.6176739 -4.51618,-3.99599279 l -0.11823,0.96944209 c 2.69553,0.3310289 3.57039,1.1349565 3.57039,3.1211304 l -0.0237,3.4048697 c 0,1.5605652 0.52019,2.3408481 1.67879,2.6955221 -1.18224,0.378319 -1.67879,1.158601 -1.67879,2.719166 l 0.0237,3.381225 c 0,2.009819 -0.89851,2.813747 -3.57039,3.144776 l 0.11823,0.969442 z m -1.35092,0 0.11822,-0.969442 C 128.4885,19.870151 127.59,19.066223 127.59,17.056404 l 0.0236,-3.381225 c 0,-1.560565 -0.52019,-2.340847 -1.70243,-2.719166 1.18224,-0.354674 1.70243,-1.1349569 1.70243,-2.6955221 L 127.59,4.8556212 c 0,-1.9861739 0.87486,-2.7901015 3.57038,-3.1211304 l -0.11822,-0.96944209 c -3.31029,0.37831889 -4.51619,1.51327539 -4.51619,3.99599279 l 0,3.31029 c 0,1.6787898 -0.70934,2.3881375 -2.55365,2.3881375 l 0,0.993087 c 1.84431,0 2.55365,0.685703 2.55365,2.388138 l 0,3.333935 c 0,2.482717 1.2059,3.617674 4.51619,3.995993 z" />
</svg>
