<?xml version="1.0" encoding="UTF-8" standalone="no"?>
<svg
   xmlns:dc="http://purl.org/dc/elements/1.1/"
   xmlns:cc="http://creativecommons.org/ns#"
   xmlns:rdf="http://www.w3.org/1999/02/22-rdf-syntax-ns#"
   xmlns:svg="http://www.w3.org/2000/svg"
   xmlns="http://www.w3.org/2000/svg"
   xmlns:sodipodi="http://sodipodi.sourceforge.net/DTD/sodipodi-0.dtd"
   xmlns:inkscape="http://www.inkscape.org/namespaces/inkscape"
   focusable="false"
   height="24"
   version="1.1"
   viewBox="0 0 140 24"
   width="140"
   id="svg2"
   inkscape:version="0.91 r13725"
   sodipodi:docname="elementary-css-logo.master.svg"
   style="shape-rendering:geometricPrecision">
  <metadata
     id="metadata19">
    <rdf:RDF>
      <cc:Work
         rdf:about="">
        <dc:format>image/svg+xml</dc:format>
        <dc:type
           rdf:resource="http://purl.org/dc/dcmitype/StillImage" />
        <dc:title />
      </cc:Work>
    </rdf:RDF>
  </metadata>
  <defs
     id="defs17" />
  <sodipodi:namedview
     pagecolor="#ffffff"
     bordercolor="#666666"
     borderopacity="1"
     objecttolerance="10"
     gridtolerance="10"
     guidetolerance="10"
     inkscape:pageopacity="0"
     inkscape:pageshadow="2"
     inkscape:window-width="1366"
     inkscape:window-height="709"
     id="namedview15"
     showgrid="false"
     inkscape:zoom="4.1571429"
     inkscape:cx="88.452915"
     inkscape:cy="8.9808536"
     inkscape:window-x="-8"
     inkscape:window-y="-8"
     inkscape:window-maximized="1"
     inkscape:current-layer="svg2" />
  <g
     transform="scale(1.1516238,0.86833913)"
     style="font-style:normal;font-weight:normal;font-size:38.2673912px;line-height:100%;font-family:sans-serif;letter-spacing:0px;word-spacing:0px;fill:#000000;fill-opacity:1;stroke:none;stroke-width:1px;stroke-linecap:butt;stroke-linejoin:miter;stroke-opacity:1;shape-rendering:geometricPrecision"
     id="text4144-1">
    <path
       d="m 2.8595635,21.653378 -1.99122531,0 0,-2.30563 1.99122531,0 0,2.30563 z"
       style="font-style:normal;font-variant:normal;font-weight:normal;font-stretch:condensed;font-size:26.82914162px;line-height:100%;font-family:'Agency FB';-inkscape-font-specification:'Agency FB Condensed';letter-spacing:-1.06647265px"
       id="path4135" />
    <path
       d="m 11.631316,20.173059 q 0,1.480319 -1.467218,1.480319 l -4.1920538,0 q -1.4672187,0 -1.4672187,-1.480319 l 0,-9.785825 q 0,-1.4803188 1.4672187,-1.4803188 l 4.1920538,0 q 1.467218,0 1.467218,1.4803188 l 0,4.585058 -0.589507,0.615708 -4.847062,0 0,4.611259 3.7466477,0 0,-2.33183 1.6899213,0 0,2.30563 z m -1.6899213,-5.973676 0,-3.838349 -3.7466477,0 0,3.838349 3.7466477,0 z"
       style="font-style:normal;font-variant:normal;font-weight:normal;font-stretch:condensed;font-size:26.82914162px;line-height:100%;font-family:'Agency FB';-inkscape-font-specification:'Agency FB Condensed';letter-spacing:-1.06647265px"
       id="path4137" />
    <path
       d="m 15.267804,21.653378 -1.716122,0 0,-20.5017615 1.716122,0 0,20.5017615 z"
       style="font-style:normal;font-variant:normal;font-weight:normal;font-stretch:condensed;font-size:26.82914162px;line-height:100%;font-family:'Agency FB';-inkscape-font-specification:'Agency FB Condensed';letter-spacing:-1.06647265px"
       id="path4139" />
    <path
       d="m 24.27536,20.173059 q 0,1.480319 -1.467219,1.480319 l -4.192053,0 q -1.467219,0 -1.467219,-1.480319 l 0,-9.785825 q 0,-1.4803188 1.467219,-1.4803188 l 4.192053,0 q 1.467219,0 1.467219,1.4803188 l 0,4.585058 -0.589508,0.615708 -4.847062,0 0,4.611259 3.746648,0 0,-2.33183 1.689922,0 0,2.30563 z m -1.689922,-5.973676 0,-3.838349 -3.746648,0 0,3.838349 3.746648,0 z"
       style="font-style:normal;font-variant:normal;font-weight:normal;font-stretch:condensed;font-size:26.82914162px;line-height:100%;font-family:'Agency FB';-inkscape-font-specification:'Agency FB Condensed';letter-spacing:-1.06647265px"
       id="path4141" />
    <path
       d="m 38.902887,21.653378 -1.742322,0 0,-11.187543 -3.799049,0.104801 0,11.082742 -1.729222,0 0,-11.187543 -3.799048,0.104801 0,11.082742 -1.742322,0 0,-12.7464628 1.742322,0 0,0.3537045 q 1.021813,-0.1310016 2.043626,-0.2751035 1.244516,-0.157202 2.056726,-0.157202 0.79911,0 1.179015,0.4847062 1.100414,-0.1441018 2.187728,-0.3013038 1.427918,-0.1834024 2.161527,-0.1834024 1.441019,0 1.441019,1.4279178 l 0,11.397146 z"
       style="font-style:normal;font-variant:normal;font-weight:normal;font-stretch:condensed;font-size:26.82914162px;line-height:100%;font-family:'Agency FB';-inkscape-font-specification:'Agency FB Condensed';letter-spacing:-1.06647265px"
       id="path4143" />
    <path
       d="m 47.818742,20.173059 q 0,1.480319 -1.467218,1.480319 l -4.192054,0 q -1.467218,0 -1.467218,-1.480319 l 0,-9.785825 q 0,-1.4803188 1.467218,-1.4803188 l 4.192054,0 q 1.467218,0 1.467218,1.4803188 l 0,4.585058 -0.589507,0.615708 -4.847062,0 0,4.611259 3.746648,0 0,-2.33183 1.689921,0 0,2.30563 z m -1.689921,-5.973676 0,-3.838349 -3.746648,0 0,3.838349 3.746648,0 z"
       style="font-style:normal;font-variant:normal;font-weight:normal;font-stretch:condensed;font-size:26.82914162px;line-height:100%;font-family:'Agency FB';-inkscape-font-specification:'Agency FB Condensed';letter-spacing:-1.06647265px"
       id="path4145" />
    <path
       d="m 56.9573,21.653378 -1.742323,0 0,-11.187543 -3.838348,0.104801 0,11.082742 -1.742323,0 0,-12.7464628 1.742323,0 0,0.3537045 q 1.021813,-0.1310016 2.056726,-0.2751035 1.257616,-0.157202 2.069826,-0.157202 1.454119,0 1.454119,1.4279178 l 0,11.397146 z"
       style="font-style:normal;font-variant:normal;font-weight:normal;font-stretch:condensed;font-size:26.82914162px;line-height:100%;font-family:'Agency FB';-inkscape-font-specification:'Agency FB Condensed';letter-spacing:-1.06647265px"
       id="path4147" />
    <path
       d="m 63.266221,21.653378 -2.475932,0 q -1.467219,0 -1.467219,-1.480319 l 0,-9.733424 -1.532719,0 0,-1.5327198 1.532719,0 0,-3.9693505 1.716122,0 0,3.9693505 2.227029,0 0,1.5327198 -2.227029,0 0,9.681023 2.227029,0 0,1.53272 z"
       style="font-style:normal;font-variant:normal;font-weight:normal;font-stretch:condensed;font-size:26.82914162px;line-height:100%;font-family:'Agency FB';-inkscape-font-specification:'Agency FB Condensed';letter-spacing:-1.06647265px"
       id="path4149" />
    <path
       d="m 71.68427,21.653378 -1.716122,0 0,-0.353705 q -1.034913,0.144102 -2.069827,0.275104 -1.283816,0.157202 -2.056726,0.157202 -1.427918,0 -1.427918,-1.414818 l 0,-4.65056 q 0,-1.467218 1.480319,-1.467218 l 4.100352,0 0,-3.838349 -3.746648,0 0,2.174627 -1.689921,0 0,-2.148427 q 0,-1.4803188 1.467219,-1.4803188 l 4.192053,0 q 1.467219,0 1.467219,1.4803188 l 0,11.266144 z m -1.689922,-1.585121 0,-4.506457 -3.890749,0 0,4.585058 3.890749,-0.0786 z"
       style="font-style:normal;font-variant:normal;font-weight:normal;font-stretch:condensed;font-size:26.82914162px;line-height:100%;font-family:'Agency FB';-inkscape-font-specification:'Agency FB Condensed';letter-spacing:-1.06647265px"
       id="path4151" />
    <path
       d="m 80.089218,13.098969 -1.716122,0 0,-2.633134 -3.209541,0.104801 0,11.082742 -1.742322,0 0,-12.7464628 1.742322,0 0,0.3537045 q 0.864611,-0.1310016 1.742322,-0.2751035 1.048013,-0.157202 1.742322,-0.157202 1.441019,0 1.441019,1.4279178 l 0,2.842737 z"
       style="font-style:normal;font-variant:normal;font-weight:normal;font-stretch:condensed;font-size:26.82914162px;line-height:100%;font-family:'Agency FB';-inkscape-font-specification:'Agency FB Condensed';letter-spacing:-1.06647265px"
       id="path4153" />
    <path
       d="m 88.389362,8.9069152 -3.065439,12.6416608 -1.270716,4.938763 -1.716122,0 1.283816,-4.938763 -3.14404,-12.6416608 1.794723,0 2.174628,10.0347278 2.200828,-10.0347278 1.742322,0 z"
       style="font-style:normal;font-variant:normal;font-weight:normal;font-stretch:condensed;font-size:26.82914162px;line-height:100%;font-family:'Agency FB';-inkscape-font-specification:'Agency FB Condensed';letter-spacing:-1.06647265px"
       id="path4155" />
    <path
       d="m 94.750685,14.644788 -5.397269,0 0,-1.62442 5.397269,0 0,1.62442 z"
       style="font-style:normal;font-variant:normal;font-weight:normal;font-stretch:condensed;font-size:26.82914162px;line-height:100%;font-family:'Agency FB';-inkscape-font-specification:'Agency FB Condensed';letter-spacing:-1.06647265px"
       id="path4157" />
    <path
       d="m 103.44384,20.173059 q 0,1.480319 -1.46722,1.480319 l -4.139652,0 q -1.467219,0 -1.467219,-1.480319 l 0,-9.785825 q 0,-1.4803188 1.467219,-1.4803188 l 4.139652,0 q 1.46722,0 1.46722,1.4803188 l 0,2.541432 -1.71612,0 0,-2.489031 -3.615648,0 0,9.681023 3.615648,0 0,-2.842736 1.71612,0 0,2.895137 z"
       style="font-style:normal;font-variant:normal;font-weight:normal;font-stretch:condensed;font-size:26.82914162px;line-height:100%;font-family:'Agency FB';-inkscape-font-specification:'Agency FB Condensed';letter-spacing:-1.06647265px"
       id="path4159" />
    <path
       d="m 112.07149,20.173059 q 0,1.480319 -1.48032,1.480319 l -3.99555,0 q -1.48032,0 -1.48032,-1.480319 l 0,-2.895137 1.71612,0 0,2.868936 3.52394,0 0,-2.541432 -4.55885,-3.733548 q -0.65501,-0.524006 -0.65501,-1.362417 l 0,-2.122227 q 0,-1.4803188 1.48032,-1.4803188 l 3.94315,0 q 1.48032,0 1.48032,1.4803188 l 0,2.541432 -1.68993,0 0,-2.515232 -3.52394,0 0,2.227029 4.59816,3.733547 q 0.64191,0.510907 0.64191,1.388618 l 0,2.410431 z"
       style="font-style:normal;font-variant:normal;font-weight:normal;font-stretch:condensed;font-size:26.82914162px;line-height:100%;font-family:'Agency FB';-inkscape-font-specification:'Agency FB Condensed';letter-spacing:-1.06647265px"
       id="path4161" />
    <path
       d="m 120.69914,20.173059 q 0,1.480319 -1.48032,1.480319 l -3.99555,0 q -1.48032,0 -1.48032,-1.480319 l 0,-2.895137 1.71612,0 0,2.868936 3.52395,0 0,-2.541432 -4.55886,-3.733548 q -0.65501,-0.524006 -0.65501,-1.362417 l 0,-2.122227 q 0,-1.4803188 1.48032,-1.4803188 l 3.94315,0 q 1.48032,0 1.48032,1.4803188 l 0,2.541432 -1.68992,0 0,-2.515232 -3.52395,0 0,2.227029 4.59816,3.733547 q 0.64191,0.510907 0.64191,1.388618 l 0,2.410431 z"
       style="font-style:normal;font-variant:normal;font-weight:normal;font-stretch:condensed;font-size:26.82914162px;line-height:100%;font-family:'Agency FB';-inkscape-font-specification:'Agency FB Condensed';letter-spacing:-1.06647265px"
       id="path4163" />
  </g>
</svg>
