<?xml version="1.0" encoding="utf-8"?>
<svg focusable="false" height="24" shape-rendering="geometricPrecision" version="1.1" viewBox="0 0 140 24" width="140" xmlns="http://www.w3.org/2000/svg">
    <title>Elementary CSS</title>
	<path
		fill="#7f8C8D"
		d="m 139.52673,17.878082 q 0,1.339287 -1.71886,1.339287 l -4.63943,0 q -1.71886,0 -1.71886,-1.339287 l 0,-2.619309 1.99266,0 0,2.595606 4.09182,0 0,-2.299304 -5.29351,-3.377843 q -0.76056,-0.474085 -0.76056,-1.232617 l 0,-1.9200383 q 0,-1.3392854 1.71887,-1.3392854 l 4.57857,0 q 1.71888,0 1.71888,1.3392854 l 0,2.2993023 -1.96225,0 0,-2.2755984 -4.09182,0 0,2.0148554 5.33914,3.377843 q 0.74535,0.462231 0.74535,1.256322 l 0,2.180781 z m -10.01797,0 q 0,1.339287 -1.71887,1.339287 l -4.63942,0 q -1.71886,0 -1.71886,-1.339287 l 0,-2.619309 1.99267,0 0,2.595606 4.0918,0 0,-2.299304 -5.29351,-3.377843 q -0.76055,-0.474085 -0.76055,-1.232617 l 0,-1.9200383 q 0,-1.3392854 1.71887,-1.3392854 l 4.57858,0 q 1.71887,0 1.71887,1.3392854 l 0,2.2993023 -1.96226,0 0,-2.2755984 -4.0918,0 0,2.0148554 5.33914,3.377843 q 0.74534,0.462231 0.74534,1.256322 l 0,2.180781 z m -10.01797,0 q 0,1.339287 -1.70365,1.339287 l -4.80674,0 q -1.70368,0 -1.70368,-1.339287 l 0,-8.8535053 q 0,-1.3392854 1.70368,-1.3392854 l 4.80674,0 q 1.70365,0 1.70365,1.3392854 l 0,2.2993023 -1.99268,0 0,-2.2518937 -4.19829,0 0,8.7586897 4.19829,0 0,-2.571902 1.99268,0 0,2.619309 z m -10.09403,-5.001579 -6.26702,0 0,-1.469657 6.26702,0 0,1.469657 z m -7.38643,-5.1912117 -3.559422,11.4372597 -1.475488,4.468237 -1.992669,0 1.490699,-4.468237 -3.650693,-11.4372597 2.083937,0 2.525062,9.0786947 2.555484,-9.0786947 2.02309,0 z m -9.637684,3.7926667 -1.992669,0 0,-2.3822689 -3.726749,0.094817 0,10.0268644 -2.02309,0 0,-11.5320787 2.02309,0 0,0.3200061 q 1.003941,-0.1185211 2.023092,-0.2488941 1.216898,-0.1422249 2.023094,-0.1422249 1.673232,0 1.673232,1.2918767 l 0,2.5719029 z m -9.759377,7.739411 -1.992669,0 0,-0.320007 q -1.201687,0.130374 -2.403373,0.248894 -1.490699,0.142227 -2.388162,0.142227 -1.658021,0 -1.658021,-1.280027 l 0,-4.207491 q 0,-1.327431 1.718866,-1.327431 l 4.761112,0 0,-3.4726613 -4.350409,0 0,1.9674453 -1.962247,0 0,-1.9437413 q 0,-1.3392854 1.703657,-1.3392854 l 4.867589,0 q 1.703657,0 1.703657,1.3392854 l 0,10.1927923 z m -1.962247,-1.434103 0,-4.077116 -4.517731,0 0,4.148229 4.517731,-0.07112 z m -7.812343,1.434103 -2.87492,0 q -1.703658,0 -1.703658,-1.339287 l 0,-8.8060967 -1.779711,0 0,-1.386694 1.779711,0 0,-3.5911813 1.99267,0 0,3.5911813 2.585908,0 0,1.386694 -2.585908,0 0,8.7586897 2.585908,0 0,1.386694 z m -7.325585,0 -2.023092,0 0,-10.1216799 -4.456883,0.094817 0,10.0268644 -2.023094,0 0,-11.5320787 2.023094,0 0,0.3200061 q 1.186474,-0.1185211 2.38816,-0.2488941 1.460276,-0.1422249 2.40337,-0.1422249 1.688445,0 1.688445,1.2918767 l 0,10.3113139 z M 54.901889,17.878082 q 0,1.339287 -1.703656,1.339287 l -4.867591,0 q -1.703654,0 -1.703654,-1.339287 l 0,-8.8535053 q 0,-1.3392854 1.703654,-1.3392854 l 4.867591,0 q 1.703656,0 1.703656,1.3392854 l 0,4.1482283 -0.684505,0.557048 -5.628149,0 0,4.171935 4.350407,0 0,-2.109672 1.962247,0 0,2.085966 z m -1.962247,-5.404548 0,-3.4726613 -4.350407,0 0,3.4726613 4.350407,0 z m -8.39037,6.743835 -2.02309,0 0,-10.1216799 -4.411254,0.094817 0,10.0268644 -2.007881,0 0,-10.1216809 -4.411253,0.094817 0,10.0268634 -2.02309,0 0,-11.5320777 2.02309,0 0,0.3200062 q 1.186477,-0.1185208 2.372951,-0.2488937 1.445065,-0.142225 2.388161,-0.142225 0.927883,0 1.369009,0.4385271 1.277741,-0.1303729 2.540274,-0.2725979 1.658021,-0.1659292 2.509849,-0.1659292 1.673234,0 1.673234,1.2918767 l 0,10.3113135 z M 27.564568,17.878082 q 0,1.339287 -1.703657,1.339287 l -4.867589,0 q -1.703658,0 -1.703658,-1.339287 l 0,-8.8535053 q 0,-1.3392854 1.703658,-1.3392854 l 4.867589,0 q 1.703657,0 1.703657,1.3392854 l 0,4.1482283 -0.684506,0.557048 -5.628151,0 0,4.171935 4.350407,0 0,-2.109672 1.96225,0 0,2.085966 z m -1.96225,-5.404548 0,-3.4726613 -4.350407,0 0,3.4726613 4.350407,0 z m -8.496846,6.743835 -1.992669,0 0,-18.54851112 1.992669,0 0,18.54851112 z m -4.222496,-1.339287 q 0,1.339287 -1.703655,1.339287 l -4.8675897,0 q -1.7036563,0 -1.7036563,-1.339287 l 0,-8.8535053 q 0,-1.3392854 1.7036563,-1.3392854 l 4.8675897,0 q 1.703655,0 1.703655,1.3392854 l 0,4.1482283 -0.684504,0.557048 -5.6281501,0 0,4.171935 4.3504081,0 0,-2.109672 1.962246,0 0,2.085966 z m -1.962246,-5.404548 0,-3.4726613 -4.3504081,0 0,3.4726613 4.3504081,0 z m -8.2230457,6.743835 -2.31210473,0 0,-2.085968 2.31210473,0 0,2.085968 z" />
</svg>
